<?xml version="1.0" encoding="utf-8"?>
<!-- Generator: Adobe Illustrator 25.0.0, SVG Export Plug-In . SVG Version: 6.00 Build 0)  -->
<svg version="1.1" id="Capa_1" xmlns="http://www.w3.org/2000/svg" xmlns:xlink="http://www.w3.org/1999/xlink" x="0px" y="0px"
	 viewBox="0 0 431.9 431.9"  width="60px" height="60px" style="enable-background:new 0 0 431.9 431.9;" xml:space="preserve">
<style type="text/css">
	.st0{fill:#FFFFFF;}
</style>
<g>
	<g>
	</g>
	<g>
	</g>
	<g>
	</g>
	<g>
	</g>
	<g>
	</g>
	<g>
	</g>
	<g>
	</g>
	<g>
	</g>
	<g>
	</g>
	<g>
	</g>
	<g>
	</g>
	<g>
	</g>
	<g>
	</g>
	<g>
	</g>
	<g>
	</g>
</g>
<path class="st0" d="M215.9,0C96.7,0,0,96.7,0,215.9s96.7,215.9,215.9,215.9s215.9-96.7,215.9-215.9S335.2,0,215.9,0z M337.5,213
	l-3.2,3.5c-4.5,5-10.5,7-13.3,4.5l-0.1-0.1c-2-1.7-5.1-0.3-5.1,2.3v98.3c0,8.4-6.8,15.2-15.2,15.2h-43.2c-6.7,0-11.5-5.4-11.4-12.2
	v-59c0-9.7-7.9-17.6-17.6-17.6h-20.3c-9.7,0-17.6,7.9-17.6,17.6v56c0,8.4-6.8,15.2-15.2,15.2h-37.5c-8.4,0-15.2-6.8-15.2-15.2v-99.7
	c0-2.6-3.1-4-5.1-2.3l-3.3,2.9c-4.6,4.1-12.1,3.6-16.8-1.3l-2.8-2.9c-4.7-4.8-4.4-12.5,0.5-17L206.9,98.6c5-4.5,13.1-4.6,18.1-0.2
	L336.6,196C341.6,200.4,342.1,208,337.5,213z"/>
</svg>
