<svg id="Layer_1" data-name="Layer 1" xmlns="http://www.w3.org/2000/svg" viewBox="0 0 1000 1000"><defs><style>.cls-1{fill:#89c5cc;}.cls-2{fill:#1c1c49;}.cls-3{fill:#9fb3c1;}.cls-4{fill:#8499a5;}.cls-5{fill:none;stroke:#8499a5;stroke-linecap:round;stroke-linejoin:round;stroke-width:1.91px;}.cls-6{fill:#fd4335;}.cls-7{fill:#feeaa8;}.cls-8{fill:#d92b25;}.cls-9{fill:#ba932e;}.cls-10{fill:#e7c7a9;}.cls-11{fill:#add4f7;}.cls-12{fill:#303877;}.cls-13{fill:#e6c6a8;}.cls-14{fill:#dae1e7;}.cls-15{fill:#e7c6a8;}.cls-16{fill:#e0c1a6;}.cls-17{fill:#2d316a;}.cls-18{fill:#5a5e90;}.cls-19{fill:#add3f5;}.cls-20{fill:#3d51c9;}.cls-21{fill:#a6a8d9;}</style></defs><circle class="cls-1" cx="494.73" cy="506.22" r="309.98"/><path class="cls-2" d="M757.29,560.23q-7.53,15.12-15.07,30.24L712.2,650c-1.49,2.94-3,5.87-4.68,9.19-1.49-1-2.75-1.63-3.9-2.47q-24.12-17.67-48.24-35.34c-1.58-1.16-3.34-2.09-5-3.12l-11.63-10.41c-.71-1.65-1.13-3.51-2.17-4.91-35.73-47.86-68.8-97.42-95.88-150.76-13.74-27-25.93-54.76-34.87-83.82C518,381.6,529.75,395.25,542.44,408c51.82,51.85,111.74,92.42,176.82,125.66,12,6.13,24.24,11.79,36.37,17.68,1.46.71,2.9,1.46,4.41,2.23Z"/><rect class="cls-3" x="465.64" y="424.44" width="228.05" height="147.35" rx="12" transform="translate(-140 240.81) rotate(-21)"/><path class="cls-4" d="M578.27,527.06s-16.23-.27-16.58-16.22c-.25-11.63,8.2-15,8.2-25.1s11.83-10.59,14.09,0c1.13,5.32,12.71,15.07,12.71,25.1S591.86,527.11,578.27,527.06Z"/><path class="cls-5" d="M576.33,482.51c0-.63-.34-15.49-4.94-18.25"/><path class="cls-6" d="M576.38,805.55c-18.58,3.29-37,7.68-55.76,9.63-33.48,3.51-66.69.23-99.39-7.79a17.91,17.91,0,0,1-2.31-.87q4.92-28.07,9.83-56.15l33.74-9c-3.17-10.63-6.21-20.8-9.25-31l36.3-9.57c1-.16,2-.24,2.95-.48q45.45-11.34,90.87-22.74c1.23-.3,2.4-.83,3.87-1.35-6.25-17.24-12.36-34.09-18.46-50.93l53.6-13.23a25.47,25.47,0,0,1-.21,4.47c-4.42,19.72-8.63,39.49-13.45,59.11-7,28.65-14.41,57.22-21.88,85.76-3.32,12.68-7.32,25.17-10.73,37.83C575.6,801.15,572.7,803.68,576.38,805.55Z"/><path class="cls-7" d="M696.36,742.9c11,7.31,21,15.53,28.3,26.92,17.42,27.15,15.44,64.06-5,89-17.37,21.18-40,30.72-66.89,28.39a75.49,75.49,0,0,1-67.22-58.47c-1.44-6.25-1.44-12.82-2.17-19.23-.2-1.75-.63-3.48-1-5.21a27.7,27.7,0,0,0,1.78-5c6.36-41.85,45.91-71,87.54-63.9C680.11,736.83,688.16,740.35,696.36,742.9Z"/><path class="cls-8" d="M696.36,742.9c-8.2-2.55-16.25-6.07-24.65-7.5-41.63-7.07-81.18,22.05-87.54,63.9a27.7,27.7,0,0,1-1.78,5l-6,1.22c-3.68-1.87-.78-4.4-.28-6.25,3.41-12.66,7.41-25.15,10.73-37.83,7.47-28.54,14.84-57.11,21.88-85.76,4.82-19.62,9-39.39,13.45-59.11a25.47,25.47,0,0,0,.21-4.47l16.37-4.25,11.63,10.41c2,4.29,3.82,8.62,5.89,12.86q25,51.24,50.12,102.45Z"/><path class="cls-9" d="M466.2,199.86c0,3.13-.07,6.27-.11,9.4-4.45,7.12-11.63,10.72-18.65,14.56-1.72.94-4.2,1.79-4.8,3.29-2.74,6.89-5.87,13.87-6.93,21.09-.5,3.46,3.08,7.66,5.19,11.31a51.74,51.74,0,0,0,6.36,8.94A173.67,173.67,0,0,0,462.65,284c5.08,4.3,11.11,4.53,16.52.17,4.79-3.85,9.36-8,13.83-12.18,4-3.76,7.7-7.81,11.54-11.73,4.45-1.18,5.5,1.8,5.68,5.08.13,2.35-.6,4.75-1,7.13-2.59,4-5.42,7.81-7.63,12-.76,1.42-.63,4.25.33,5.34.8.91,3.45.43,5.22.17a54,54,0,0,0,6-1.57,3.66,3.66,0,0,0,.18.46c7.41,14.3,6.77,16.62-8.34,21.92a115,115,0,0,1-23.57,5.56c-4.87.61-10.05-1.13-15.09-1.82-3.62-3.86-7.87-7.31-10.75-11.66-8-12.05-15.4-24.48-23-36.77-1-1.64-1.95-3.33-2.88-4.93-6.84,2.85-10.7,7.62-11.05,14-.37,6.58,2.54,11.45,8.28,14.83,1.16.68,2.41,2.81,2.19,4-1.06,5.87-2.61,11.65-4,17.47-26.14-4-44-24.27-44.82-50.75-.11-3.66-.1-7.32-.21-11-.35-11.54,4.3-21,12-29.19,1.8-1.92,3.55-3.9,5.32-5.85h0l1.24-1c17.72-13.69,38.66-18.38,60.16-21.53,2.8-.41,4.38.67,5.29,3.24C464.71,196.9,465.51,198.36,466.2,199.86Z"/><path class="cls-10" d="M787.27,611.79c-4.27-3.27-8.46-6.65-12.83-9.77a30.82,30.82,0,0,0-8-4.54c-8-2.59-16.15-4.71-24.24-7l15.07-30.24c9.11,5,18.09,10.18,27.38,14.77,3.88,1.92,8.4,2.5,12.63,3.7Q792.28,595.25,787.27,611.79Z"/><path class="cls-10" d="M370.39,789.58l.9-25,37.25-9.23c-.11,4.33,0,8.67-.39,13-1,11.71-3.32,23.38-.53,35.15Z"/><path class="cls-11" d="M398.72,213.64l-1.24,1Z"/><path class="cls-12" d="M428.75,750.37l-20.21,5-37.25,9.23-8.77,1.67c-2-16.34-4.7-32.29-5.79-48.34-1.87-27.56-3.9-55.19-3.81-82.78.23-71.19,11.71-140.49,38.44-206.86a471.74,471.74,0,0,1,39.29-76.79,27,27,0,0,1,3.7-3.87c6.79-1.34,13.56-2.91,20.41-3.88,2-.28,4.26,1.15,6.4,1.79,6.89,10.39,13.81,20.77,20.65,31.2a25.39,25.39,0,0,1,2.94,5.72C501,431,516.91,479.76,533.56,528.22c11.19,32.56,23.43,64.77,35.2,97.13l18.47,50.94c-1.47.52-2.64,1.05-3.87,1.35q-45.42,11.4-90.87,22.74c-1,.24-2,.32-2.95.47-30.06-34.43-43.81-77.06-59.62-118.81a267.71,267.71,0,0,0,2.76,32.59c2.54,16.14,5.36,32.25,8.8,48.22s7.8,31.73,11.76,47.58c3,10.18,6.08,20.35,9.25,31Zm37-127.94.74,1.05q25.23-6.35,50.44-12.72c4-1,10-1.13,11.31-3.64,1.55-2.91-.88-8-1.81-12.16-1.22-5.37-2.67-10.69-4.23-16.88Z"/><path class="cls-13" d="M461.16,345.54c-2.14-.64-4.39-2.07-6.4-1.79-6.85,1-13.62,2.54-20.41,3.88q-4.59-18.11-9.17-36.21c1.38-5.82,2.93-11.6,4-17.47.22-1.2-1-3.33-2.19-4-5.74-3.38-8.65-8.25-8.28-14.83.35-6.36,4.21-11.13,11.05-14,.93,1.6,1.86,3.29,2.88,4.93,7.62,12.29,15,24.72,23,36.77,2.88,4.35,7.13,7.8,10.75,11.66.5,1.93.53,4.17,1.58,5.73,5,7.51,10.34,14.83,15.55,22.22-1.56.35-3.11.82-4.69,1C473,344.2,467.05,344.85,461.16,345.54Z"/><path class="cls-14" d="M505.82,368.39c8.94,29.06,21.13,56.77,34.87,83.82,27.08,53.34,60.15,102.9,95.88,150.76,1,1.4,1.46,3.26,2.17,4.91l-16.37,4.25-53.6,13.23c-11.78-32.37-24-64.58-35.21-97.14C516.91,479.76,501,431,484.75,382.46a25.39,25.39,0,0,0-2.94-5.72c-6.84-10.43-13.76-20.81-20.65-31.2,5.89-.69,11.79-1.34,17.68-2.08,1.58-.2,3.13-.67,4.69-1,2.82,0,5.88.66,8.39-.22,5.53-1.93,6.67.72,7.75,5.33C501.32,354.59,503.73,361.45,505.82,368.39Z"/><path class="cls-15" d="M504.54,260.25c-3.84,3.92-7.55,8-11.54,11.73-4.47,4.21-9,8.33-13.83,12.18-5.41,4.36-11.44,4.13-16.52-.17a173.67,173.67,0,0,1-15.39-15.54,51.74,51.74,0,0,1-6.36-8.94c-2.11-3.65-5.69-7.85-5.19-11.31,1.06-7.22,4.19-14.2,6.93-21.09.6-1.5,3.08-2.35,4.8-3.29,7-3.84,14.2-7.44,18.65-14.56,6.83,6.69,14.65,12.66,20.24,20.26C493.36,239.07,498.55,250,504.54,260.25Z"/><path class="cls-16" d="M513.22,288.37a54,54,0,0,1-6,1.57c-1.77.26-4.42.74-5.22-.17-1-1.09-1.09-3.92-.33-5.34,2.21-4.16,5-8,7.63-12Q511.25,280.41,513.22,288.37Z"/><path class="cls-17" d="M453.24,710.43c-4-15.85-8.31-31.62-11.76-47.58s-6.26-32.08-8.8-48.22A267.71,267.71,0,0,1,429.92,582c15.81,41.75,29.56,84.38,59.62,118.81Z"/><path class="cls-18" d="M465.73,622.43l56.45-44.35c1.56,6.19,3,11.51,4.23,16.88.93,4.12,3.36,9.25,1.81,12.16-1.34,2.51-7.33,2.63-11.31,3.64q-25.2,6.42-50.44,12.72Z"/><path class="cls-19" d="M310.94,656.51l27.44,25.4-75,74.91-22.33-20.28a54.51,54.51,0,0,0-4.43-5.75c-15.34-15.43-30.75-30.79-45.58-45.61l74.08-74.08Z"/><circle class="cls-20" cx="210.38" cy="371.48" r="38"/><path class="cls-21" d="M277.76,198.48l12.6,13.25-13.39,13-12.42-13.22Z"/></svg>