<svg id="Layer_1" data-name="Layer 1" xmlns="http://www.w3.org/2000/svg" xmlns:xlink="http://www.w3.org/1999/xlink" viewBox="0 0 1000 1000"><defs><style>.cls-1{fill:none;}.cls-2{fill:#7a8dfe;}.cls-3{fill:#dae1e7;}.cls-4{fill:#e7c7a9;}.cls-5{fill:#ec1c24;}.cls-6{clip-path:url(#clip-path);}.cls-7{fill:#a67c52;}.cls-8{fill:#c69c6d;}.cls-9{fill:#e0b489;}.cls-10{fill:#212bcf;}.cls-11{fill:#1c1c4a;}.cls-12{fill:#add4f7;}.cls-13{fill:#fd9b24;}.cls-14{fill:#e6c6a8;}.cls-15{fill:#e7c6a8;}.cls-16{fill:#e0c1a6;}.cls-17{fill:#add3f5;}.cls-18{fill:#bdccd4;}.cls-19{fill:#a55712;}.cls-20{fill:#ff931e;}.cls-21{fill:#88c5cc;}</style><clipPath id="clip-path"><path class="cls-1" d="M812.51,533.63s-2.63,285.66-297.88,285.88L177.74,184.9,303.88,2.29Z"/></clipPath></defs><circle class="cls-2" cx="498.68" cy="528.23" r="309.98"/><path class="cls-3" d="M285.89,326.32l22.26,20.61L247.34,407.7l-18.11-16.45a45.83,45.83,0,0,0-3.6-4.66c-12.44-12.52-24.94-25-37-37l60.09-60.11Z"/><path class="cls-4" d="M790.77,634.6c-4.27-3.27-8.46-6.65-12.84-9.77a30.76,30.76,0,0,0-8-4.54c-8-2.59-16.15-4.71-24.24-7L760.79,583c9.11,5,18.09,10.18,27.38,14.77,3.87,1.91,8.4,2.5,12.63,3.7Q795.78,618.05,790.77,634.6Z"/><path class="cls-5" d="M760.79,583q-7.53,15.12-15.07,30.23-15,29.79-30,59.57c-1.48,2.94-3,5.87-4.67,9.19-1.5-.95-2.75-1.63-3.9-2.47Q683,661.89,658.88,644.22c-1.59-1.16-3.34-2.09-5-3.12l-11.63-10.41c-.71-1.65-1.13-3.51-2.18-4.91-35.72-47.86-68.79-97.42-95.88-150.76-13.73-27-25.93-54.76-34.86-83.82,12.18,13.21,23.93,26.86,36.62,39.56,51.82,51.85,111.74,92.42,176.81,125.66,12,6.13,24.25,11.79,36.37,17.68,1.47.71,2.9,1.46,4.42,2.23Z"/><path class="cls-5" d="M456.74,733.24c-4-15.85-8.31-31.62-11.76-47.58s-6.26-32.08-8.8-48.22a267.71,267.71,0,0,1-2.76-32.59C449.23,646.6,463,689.23,493,723.66Z"/><path class="cls-5" d="M469.23,645.23l56.45-44.34c1.56,6.19,3,11.51,4.23,16.88.93,4.12,3.36,9.25,1.81,12.16-1.35,2.51-7.33,2.63-11.31,3.64Q495.2,640,470,646.29Z"/><g class="cls-6"><path class="cls-7" d="M821.47,644.12c-2.07,15.48,9.09,39.75-18.1,65.4s-48.77,19.56-65.06,2.29c-.27-.28-.53-.57-.79-.87L521.44,482.21c14.6,11.09-293-286.57-299.87-308-5.86-18.15,38.09-99.45,83-89.08C304.58,85.14,821.5,643.84,821.47,644.12Z"/><path class="cls-8" d="M767.28,706.24c-20.29-4.13-207.36-211.52-222-222.66,0,0-262.56-260-304-309.54-6.81-8.14,20.09-54.6,29.52-63.5,12.64-11.93,25.09-24.11,33.78-25.39,6.88-1,520.7,549.07,520.7,549.07C814.52,653,792.72,711.41,767.28,706.24Z"/><path class="cls-7" d="M279.47,102.4s68.65,72.45,64.24,69.88-72.9-61.74-72.9-61.74Z"/><path class="cls-9" d="M279.25,139.43a5.9,5.9,0,0,1,8.29.28C330.32,185,701.05,577.79,680.68,558.2S320.91,190.8,279,147.87a5.9,5.9,0,0,1,.22-8.44Z"/><path class="cls-7" d="M781.46,707.56l-199-205L778.66,715.34S781.79,707.56,781.46,707.56Z"/><path class="cls-7" d="M810.94,668.05,475.41,318.33,809.93,677.72S811.38,668.16,810.94,668.05Z"/></g><path class="cls-10" d="M579.87,828.36c-18.57,3.29-37,7.68-55.76,9.63-33.48,3.51-66.68.22-99.38-7.79a17.38,17.38,0,0,1-2.31-.87q4.9-28.07,9.83-56.15l33.74-9-9.25-31,36.3-9.58c1-.15,2-.23,2.95-.47q45.43-11.34,90.87-22.74c1.23-.3,2.4-.83,3.87-1.35l-18.47-50.93,53.61-13.24a24.6,24.6,0,0,1-.22,4.48c-4.42,19.72-8.62,39.49-13.44,59.11-7,28.65-14.41,57.22-21.88,85.76C587,797,583,809.45,579.6,822.11,579.1,824,576.2,826.49,579.87,828.36Z"/><path class="cls-11" d="M699.86,765.71c-8.21-2.56-16.25-6.07-24.65-7.5-41.64-7.07-81.18,22-87.54,63.89a29.11,29.11,0,0,1-1.78,5l-6,1.22c-3.68-1.87-.78-4.4-.28-6.25C583,809.45,587,797,590.33,784.28c7.47-28.54,14.84-57.11,21.88-85.76,4.82-19.62,9-39.39,13.44-59.11a24.54,24.54,0,0,0,.22-4.47l16.37-4.25,11.63,10.41c2,4.29,3.82,8.62,5.88,12.85q25,51.25,50.13,102.46Z"/><path class="cls-4" d="M373.89,812.39l.9-25L412,778.18c-.12,4.33,0,8.67-.4,13-1,11.71-3.32,23.38-.53,35.14Z"/><path class="cls-12" d="M402.22,236.45l-1.24,1Z"/><path class="cls-13" d="M432.25,773.18l-20.21,5-37.25,9.23L366,789.08c-2-16.35-4.7-32.29-5.79-48.35-1.87-27.55-3.9-55.18-3.81-82.77.23-71.19,11.71-140.49,38.44-206.86a471.74,471.74,0,0,1,39.29-76.79,27.43,27.43,0,0,1,3.69-3.87c6.8-1.34,13.57-2.91,20.41-3.88,2-.28,4.26,1.15,6.4,1.79,6.9,10.39,13.82,20.77,20.66,31.2a25.8,25.8,0,0,1,2.94,5.72c16.27,48.58,32.16,97.3,48.81,145.76,11.19,32.56,23.43,64.77,35.2,97.13l18.47,50.94c-1.47.52-2.64,1-3.87,1.35q-45.43,11.4-90.87,22.74c-1,.24-2,.32-2.95.47C463,689.23,449.23,646.6,433.42,604.85a267.71,267.71,0,0,0,2.76,32.59c2.54,16.14,5.36,32.25,8.8,48.22s7.8,31.73,11.76,47.58l9.25,31Zm37-127.95.74,1.06q25.21-6.35,50.44-12.72c4-1,10-1.13,11.31-3.64,1.55-2.91-.88-8-1.81-12.16-1.22-5.37-2.67-10.69-4.23-16.88Z"/><path class="cls-14" d="M464.65,368.35c-2.14-.64-4.39-2.07-6.4-1.79-6.84,1-13.61,2.54-20.41,3.88q-4.57-18.1-9.16-36.21c1.38-5.82,2.92-11.6,4-17.47.22-1.21-1-3.33-2.2-4-5.73-3.38-8.64-8.25-8.28-14.83.36-6.36,4.21-11.13,11.05-14,.94,1.59,1.87,3.29,2.89,4.93,7.62,12.29,15,24.72,23,36.77,2.88,4.35,7.13,7.8,10.75,11.66.5,1.93.53,4.17,1.58,5.73,5,7.51,10.34,14.83,15.55,22.22-1.56.35-3.11.82-4.69,1C476.45,367,470.55,367.66,464.65,368.35Z"/><path class="cls-3" d="M509.32,391.2c8.93,29.06,21.13,56.77,34.86,83.82,27.09,53.34,60.16,102.9,95.88,150.76,1.05,1.4,1.47,3.26,2.18,4.91l-16.37,4.25-53.61,13.23c-11.77-32.37-24-64.58-35.2-97.14-16.65-48.46-32.54-97.18-48.81-145.76a25.8,25.8,0,0,0-2.94-5.72c-6.84-10.43-13.76-20.81-20.66-31.2,5.9-.69,11.8-1.34,17.69-2.08,1.58-.2,3.13-.67,4.69-1,2.82,0,5.87.66,8.39-.22,5.53-1.93,6.67.72,7.75,5.33C504.81,377.4,507.23,384.26,509.32,391.2Z"/><path class="cls-15" d="M508,283.06c-3.84,3.92-7.56,8-11.54,11.73C492,299,487.45,303.12,482.67,307c-5.41,4.35-11.45,4.13-16.52-.17a173.67,173.67,0,0,1-15.39-15.54,50.91,50.91,0,0,1-6.36-8.95c-2.11-3.64-5.69-7.84-5.19-11.3,1.06-7.22,4.19-14.2,6.93-21.09.6-1.5,3.07-2.35,4.8-3.3,7-3.83,14.2-7.43,18.65-14.55,6.83,6.69,14.65,12.66,20.24,20.26C496.85,261.87,502.05,272.76,508,283.06Z"/><path class="cls-16" d="M516.72,311.18a54,54,0,0,1-6,1.57c-1.77.26-4.42.74-5.22-.17-1-1.09-1.09-3.92-.33-5.34,2.21-4.16,5-8,7.63-12Q514.75,303.22,516.72,311.18Z"/><circle class="cls-17" cx="761.88" cy="276.98" r="17.5"/><polygon class="cls-18" points="444.59 473.88 436.87 516.51 518.7 495.19 505.1 454.38 444.59 473.88"/><path class="cls-18" d="M361.15,751.26s3,26.61,3.87,39.82c-.14.21,101-23.87,101-23.87l-7-26.33Z"/><path class="cls-19" d="M474.3,219.6c0,3.14,9.08,11.91,9,15.06-4.47,7.15-17.29,10-24.34,13.81-1.73.94-4.21,1.79-4.81,3.3-2.76,6.92-13.93,11.92-15,19.18-.51,3.47,3.09,7.69,5.21,11.35a51.62,51.62,0,0,0,6.38,9c4.94,5.4,9.89,10.89,15.46,15.61,5.09,4.31,11.15,4.54,16.59.16,4.8-3.86,9.39-8,13.88-12.23,4-3.77,7.74-7.84,11.59-11.77,4.47-1.19,5.52,1.8,5.7,5.09.13,2.37-.6,4.78-1,7.16-2.6,4-5.44,7.84-7.67,12-.75,1.42-.63,4.26.34,5.36.8.91,3.46.43,5.24.17a54.56,54.56,0,0,0,6.06-1.58c.06.15.1.32.17.47,7.45,14.36,6.8,16.69-8.37,22a116,116,0,0,1-23.66,5.59c-4.9.62-10.1-1.14-15.16-1.83-3.64-3.87-7.9-7.34-10.8-11.71-8-12.1-15.46-24.58-23.11-36.92-1-1.65-2-3.35-2.9-5-6.87,2.87-10.73,7.66-11.09,14.05-.37,6.6,2.55,11.49,8.31,14.88,1.17.69,2,2.83,2.2,4,3.52,18.2.88,20.39-.51,26.23-1.91-.29,5,15.07-8,20.09-5,1.94,1-6-11-21.09-8.16-10.2-28.78-36-29.44-58.64-.11-3.68-.1-7.36-.21-11-.36-11.59,4.32-21.08,12.09-29.31,1.81-1.93,3.56-3.92,5.35-5.88h0l1.25-1c17.8-13.75,38.82-18.46,60.41-21.62,2.81-.41,4.4.67,5.31,3.26C468.31,219.43,473.61,218.09,474.3,219.6Z"/><path class="cls-15" d="M488.38,300.07c-1,7-11.52,9.91-12.76,18.46s25.32,17.65,25.32,17.65-26.83,12.32-37.56-.11-17-28.31-17-28.31,9.4,11.82,13.2,2.57S451,291.45,451,291.45Z"/><path class="cls-20" d="M488.73,211.17s-52.31,39.36-66.54,86.75c-13.31,44.37-15.31,50.37-15.31,50.37l-5.9-2.51,2.7-6.53s-48.05-38.19-27.8-91,87-47,98.78-34.13c.17.19,8.22-5.87,8.22-5.87Z"/><circle class="cls-21" cx="644.88" cy="760.98" r="90.5"/></svg>