<svg id="Layer_1" data-name="Layer 1" xmlns="http://www.w3.org/2000/svg" viewBox="0 0 1000 1000"><defs><style>.cls-1{fill:#7a8dfe;}.cls-2{fill:#b51c24;}.cls-3{fill:#dae1e7;}.cls-4{fill:#ec1c24;}.cls-5{fill:#5d65ab;}.cls-6{fill:#583523;}.cls-7{fill:#add4f7;}.cls-8{fill:#a4c9ee;}.cls-9{fill:#add3f6;}.cls-10{fill:#5a5e90;}.cls-11{fill:#1d1d4a;}.cls-12{fill:#fea9c4;}.cls-13{fill:#a6a8d9;}.cls-14{fill:#feeecc;}</style></defs><circle class="cls-1" cx="497.67" cy="519.22" r="309.98"/><path class="cls-2" d="M791.84,587.67l-21,24.18a26.34,26.34,0,0,1-3.85,1.72c-3,.78-6.28.83-9,2.11-15.44,7.24-30.49,7.23-46.17.09-27.65-12.6-53.66-27.94-78.81-44.87-1.49-1-3.11-1.81-4.67-2.71l.08,0-2-.82c-1.63-1.82-3.22-3.68-4.91-5.45-24.78-26.09-49.8-52-68.88-82.81A335.57,335.57,0,0,1,516.83,399c-.46-1.54-2.33-5.86-2.45-7.51,40,40.54,91.49,69.06,142.38,92.64,32.59,15.1,65.4,29.73,97.91,45,7.61,3.57,14.64,8.55,21.55,13.43,10.8,7.6,15.67,18,14.32,31.47C790.09,578.48,791.36,583.11,791.84,587.67Z"/><polygon class="cls-3" points="505.84 389.81 534.47 424.5 534.47 450.54 515.64 424.5 505.84 389.81"/><path class="cls-4" d="M739.68,713.33c-2.26,3-4.2,6.37-6.82,9-11.39,11.58-23,23-34.51,34.41-1.39-.53-2.82-1-4.17-1.58-32.85-15-70.79-5.76-92.82,22.67-3.23,4.18-5.86,8.83-8.77,13.26L561.3,768.39a29.27,29.27,0,0,1,1.38-4.7c6.28-13,12.7-26,18.94-39,2.46-5.13,4.58-10.43,6.85-15.65a7.26,7.26,0,0,0-4.22,1.4,274.31,274.31,0,0,1-63,34c-16.15,6.09-32.65,10.12-50.07,8.92a39.41,39.41,0,0,1-28.19-14c-11-12.71-19.06-27.12-25.53-42.53-1.1-2.64-2.86-5-4.31-7.49l-3.6-16.84-1.34.21-1.83,28.62c-.66,9-2,17.92-1.82,26.86.2,13.09-4.7,23.78-12.9,33.48-4.68,5.54-9.48,11.09-13.34,17.19-1.68,2.67-3,3.92-5.93,3.66l-35.73-.21c-2.21-7.78-7.64-13.41-12.74-19.31a45.52,45.52,0,0,1-10.72-22.24c-1-6.05-1.6-12.2-2.08-18.33-4.26-54.26-2.33-108.18,9.35-161.51,14.13-64.47,41.62-122.45,85.29-172.23,6-6.79,8.57-12.73,6-21.61-2.26-7.85,2-13,10.24-14.52,3.76-.7,7.5-1.49,11.24-2.24,4.25-.66,8.52-1.21,12.74-2,9.89-1.88,19.76-3.89,29.63-5.85,5.43-.76,22.86-3.45,28.27-4.31,8.09-1.28,12.9,2,14.3,9.94,1.13,6.39-3.85,19.45-3.85,30.45,0,5.17,2,19,2.45,20.51a335.57,335.57,0,0,0,35.81,80.17c19.08,30.85,44.1,56.72,68.88,82.81,1.69,1.77,3.28,3.63,4.91,5.45l2,.82-.08,0c.11.69,0,1.53.37,2,4,5.53,8.39,10.79,12,16.53,9.5,14.88,13.65,30.9,9.76,48.58-.34,1.56.87,4.12,2.19,5.27,6.78,5.89,13.89,11.41,20.79,17.18Q706.63,685.51,739.68,713.33Z"/><path class="cls-5" d="M413.19,689.29c1.45,2.49,3.21,4.85,4.31,7.49C424,712.19,432.06,726.6,443,739.31a39.41,39.41,0,0,0,28.19,14c17.42,1.2,33.92-2.83,50.07-8.92a274.31,274.31,0,0,0,63-34,7.26,7.26,0,0,1,4.22-1.4c-2.27,5.22-4.39,10.52-6.85,15.65-6.24,13.05-12.66,26-18.94,39a29.27,29.27,0,0,0-1.38,4.7,31.82,31.82,0,0,0-3.5,4.43q-14.94,27.6-29.72,55.28c-5.25.63-10.48,1.6-15.74,1.82-48.69,2-95.48-6.25-140.07-26.2q.09-10.62.16-21.25c2.91.26,4.25-1,5.93-3.66,3.86-6.1,8.66-11.65,13.34-17.19,8.2-9.7,13.1-20.39,12.9-33.48-.15-8.94,1.16-17.91,1.82-26.86Z"/><path class="cls-6" d="M433.29,350.27c-2.18-8.53-1.34-5.88-3.5-15.41a8.49,8.49,0,0,0-5.61-6.65c-17.64-7.64-32-19-40.33-36.88-9.71-20.93-5.5-41.25,12.61-55.58,7.26-5.74,16-9.59,24.11-14.3h-.09l3.6-1.15,15.18-3.51c6.25-.06,12.51-.37,18.76-.11a36.85,36.85,0,0,1,24.86,10.73,156.22,156.22,0,0,1,44.73,81.17,38,38,0,0,1,.49,8.27c-.1,9.53-3.18,15.12-12.4,17.28-11.4,2.66-9.89,2.41-21.54,4-1.93.26-4-.09-7.14-.09,3.83,5.72-2.26-.93.64,3.4-9.87,2-31.74,5-41.63,6.85C441.81,349.06,437.54,349.61,433.29,350.27Z"/><path class="cls-6" d="M791.46,619c-4.56-1.62-9.1-3.25-13.67-4.85-2.29-.8-4.62-1.53-6.93-2.29l21-24.18,7.42,3.73Z"/><path class="cls-6" d="M372.43,782.47q-.07,10.63-.16,21.25l-35.92-19.27c.11-.73.23-1.46.35-2.19Z"/><path class="cls-7" d="M424.08,220.3l-3.6,1.15Z"/><path class="cls-8" d="M413.19,689.29l-6.77,12,1.83-28.62,1.34-.21Z"/><path class="cls-9" d="M626.43,567.42l2,.82Z"/><path class="cls-10" d="M599.73,732.24,557.8,772.82,615,806.15s47.4-18.67,83.37-49.38c28.83-24.62,41-43.29,41-43.29l-77.52-68.19Z"/><path class="cls-11" d="M474.74,212.31l-.12,10.44c-4.94,7.9-12.91,11.9-20.7,16.15-1.92,1-4.67,2-5.33,3.66-3,7.65-6.51,15.39-7.69,23.41-.56,3.84,1.6,15.82,3.94,19.86,2,3.51,6.16,13.68,8.88,16.65,5.46,6,4.95,7,11.1,12.21,5.63,4.78,15.08,4.84,21.09,0,4.47-11.21,13.62-17.65,18.58-22.33,4.42-4.17,8.55-8.66,12.81-13,4.94-1.32,6.1,2,6.3,5.63.14,2.61-.67,5.28-1.05,7.91-6.67,5.15-16.71,9-19.17,13.59-.84,1.58,11.11,7.75,12.18,9,.88,1,3.82.47,5.79.18a56.93,56.93,0,0,0,6.7-1.75c.06.18-1.15-8.23-1.07-8.07,10.4,6.67,21.79,31.43-6.6,35.67-8.83,1.32-18.7,2.31-27.55,3.42a104.37,104.37,0,0,1-14.69.87c-10,0-17.92-7.19-22.2-11.1-13.39-12.22-18.87-30-18.46-48.88-1.13-1.82-2.17-3.7-3.2-5.47-7.6,3.16-11.87,8.46-12.27,15.52-.41,7.3,2.83,12.7,9.19,16.46,1.3.76,2.68,3.11,2.44,4.45-1.18,6.52-2.9,12.94-4.43,19.39-29-4.45-48.89-26.94-49.76-56.33-.12-4.06-.1-8.13-.23-12.19-.39-12.8,4.78-23.29,13.36-32.4,2-2.13,3.95-4.32,5.92-6.49h0l1.38-1.13c19.67-15.2,42.91-20.41,66.78-23.9,3.1-.45,4.86.74,5.86,3.6C473.09,209,474,210.65,474.74,212.31Z"/><path class="cls-3" d="M449.78,200.68l-11.51-28.09-73.78,59.14a12.63,12.63,0,0,0-3,16.27l13.86,23.42a3.41,3.41,0,0,0,5.14.88l65.05-54.55A14.9,14.9,0,0,0,449.78,200.68Z"/><path class="cls-3" d="M364.49,231.73s-22.77-41.36-27.41-50c-5.74,4.65-30.22,1.05-29.07-22.91s14.57-27.75,20.74-21.66C330.69,114,351.43,105.65,363.6,120c13.09-36.78,40.65-20,41.76-6.55,19-27.37,39.45-5.62,29,12.45s.06,43.36,2.22,53.65S364.49,231.73,364.49,231.73Z"/><path class="cls-3" d="M410.63,384.81c11.34,2.18,19.62,12,25.15,22.15s9.37,21.34,16.75,30.22a47.23,47.23,0,0,0,79.94-12.07l2.54,1.25c23.2,47.35,32.37,41.12,86.37,77.12,42.18,28.12,56,84.6,59,95,9.27,32.58,26.75,70.21,30.66,84.44.66,2.41,1.58,4.93,1,7.35s-51.7,26.6-53.62,28.21c-16.19,13.6-32.34,26.8-49.09,39.7-15.09,11.62-30.71,22.71-47.85,31-19,9.22-27.16,11.24-47.56,16.79,0,0-7.5,3.5-10.5,3.5-5.68,0-9.67-4.85-11.9-10.08s-2.76-11-3.88-16.55c-2.24-11.08-6.91-21.54-9.37-32.57-2.76-12.34-2.7-25.15-5-37.58C469,690.45,456.74,684.89,442.88,667l2.16-15.1c-4.15,5.57-8.38,11.22-13.89,15.44s-12.47,5.62-19.41,5.73c-4.14.08-3.79-13.17-3.79-13.17,13.62,0,24.74-10.49,33.67-20.77,5.33-6.15,10.51-12.55,14.15-19.83,4.36-8.7,6.4-18.38,7.64-28a188.7,188.7,0,0,0-11.91-93.74l4.1-2.65c-12.68-14.24-19.17-32.7-25.68-50.61S412.7,407.72,394.53,402"/><circle class="cls-12" cx="250.38" cy="585.48" r="79"/><path class="cls-13" d="M308.76,818.48l12.6,13.25-13.39,13-12.42-13.22Z"/><polygon class="cls-14" points="655.16 303.09 710.39 447.14 788.18 324.63 655.16 303.09"/></svg>