<svg id="Layer_1" data-name="Layer 1" xmlns="http://www.w3.org/2000/svg" viewBox="0 0 1000 1000"><defs><style>.cls-1{fill:#7a8dfe;}.cls-2{fill:#dbe1e7;}.cls-3{fill:#303777;}.cls-4{fill:#89c5cc;}.cls-5{fill:#1c1c49;}.cls-6{fill:#915f42;}.cls-7{fill:#ec1c24;}.cls-8{fill:#e38b21;}.cls-9{fill:#1b1b49;}.cls-10{fill:#6aa2ad;}.cls-11{fill:#fff;}.cls-12{fill:#b28d6b;}.cls-13{fill:#00a69c;}.cls-14{fill:#feeaa9;}</style></defs><circle class="cls-1" cx="509.66" cy="500.36" r="309.98"/><rect class="cls-2" x="837.38" y="492.48" width="5.64" height="106" rx="2.5"/><path class="cls-3" d="M384.38,784.33l-2.21-.74c-.45-1.77-.88-3.54-1.36-5.3-16.35-60.3-25-121.49-21.54-184.12a472.35,472.35,0,0,1,31.2-145.79c1.72-4.43,3.47-8.84,4.74-12.08-6.67-3.18-13.47-5.11-18.64-9.14A76.39,76.39,0,0,1,352,395a38.31,38.31,0,0,1-2.81-17.41c1.48-13.86,11.65-21,23.69-24.87,8.12-2.57,16.92-3.49,25.49-4,16.75-1.07,33.6-.94,49.85-6.06,5.66-.94,11.3-2,17-2.73,2.27-.28,4.65.37,7,.59,9.05,15.72,18.18,31.39,27.13,47.16,25.48,44.92,49.42,90.61,69.34,138.32,12.27,29.4,22.44,59.45,29.27,90.6.27,2.14.67,4.28.81,6.43q1.35,21.39,2.58,42.76c.29,5.09-1.4,8.47-7.25,8.92-3.27.25-6.46,1.53-9.69,2.32l-85.75,21.13a4.84,4.84,0,0,0-.62-1.36c-16.59-18.34-27.84-39.86-37.24-62.49-2.29-5.5-4.76-10.92-7.15-16.37-2,10.35-3,20.48-4.23,30.59-1.37,11.3-2.88,22.59-4.45,33.86-1.4,10.13-2.95,20.24-4.44,30.35-.37,1.44-.79,2.87-1.11,4.31-3.79,16.86-7.67,33.69-11.28,50.58-.89,4.16-2.65,6.94-7,7.69Z"/><path class="cls-4" d="M498.59,698.13,584.34,677c3.23-.79,6.42-2.07,9.69-2.32,5.85-.45,7.54-3.83,7.25-8.92q-1.21-21.37-2.58-42.76c-.14-2.15-.54-4.29-.81-6.43l40.54-10c-.35,5-.62,9.9-1.08,14.83-.71,7.56-1.51,15.12-2.34,22.66q-1.75,16-3.62,32c-1.48,12.79-2.92,25.57-4.49,38.35-1.4,11.45-3,22.89-4.46,34.33-14.32,13.89-22.83,30.68-25.12,50.54-13.46,2.85-26.84,6.16-40.39,8.45-21.66,3.67-43.52,5.11-65.48,2.9-12.36-1.25-24.69-2.77-37-4.17.32-4.95.62-9.91,1-14.86.69-9.57,1.44-19.14,2.12-28.72q2-27.47,3.85-55Z"/><path class="cls-5" d="M490.5,193.43q-3.72,6.47-7.42,12.93c-5.41,3.47-10.43,8-16.32,10.16-10.45,3.83-14.91,11.29-16.45,21.45-.67,4.4-1.06,8.87-2.08,13.18-.39,1.64-1.94,3.74-3.42,4.24-7.1,2.39-11.21,7.42-12.13,14.43-.85,6.41,2.53,11.28,7.95,15a6.76,6.76,0,0,1,2.41,5.49c-.88,5.53-2.52,10.94-3.86,16.39-22.71-4-37.22-17.12-43.22-39.4-3-11-3.48-22.25-2.51-33.57.7-8,4.51-14.8,9-21.24,13.7-14.77,31.75-22,50-29,6.21-2.37,12.51-4.55,18.57-7.25,4.62-2.06,8.94-4.81,13.7-7.43C490.2,175.82,492.54,184.07,490.5,193.43Z"/><path class="cls-6" d="M815.38,610.48c-6.28-3.56-24-17.78-31.9-18.31L796,566.61l16.19,3.23C809,580.73,818.6,599.59,815.38,610.48Z"/><path class="cls-6" d="M421.09,775.29c-.74,7.79-2.2,15.61,1.24,23.18l-37.94-14.14Z"/><path class="cls-7" d="M657.31,588.27c.42,11.6.42,11.6-11.3,16.47l-7.58,1.82-40.54,10c-6.83-31.15-17-61.2-29.27-90.6-19.92-47.71-43.86-93.4-69.34-138.32-8.95-15.77-18.08-31.44-27.13-47.16l25.51-3a95.85,95.85,0,0,1,10.8-.72,5.88,5.88,0,0,1,4.2,2.6c1.3,2.41,1.82,5.24,2.67,7.91,1,3.83,1.92,7.72,3.17,11.49,12.14,36.52,30.84,69.65,52.81,101,11.56,16.5,23.53,32.72,35.51,48.93C625.53,534.05,643.92,559.57,657.31,588.27Z"/><path class="cls-6" d="M497.66,337.51l-25.51,3c-2.33-.22-4.71-.87-7-.59-5.69.69-11.33,1.79-17,2.73l-9-36c1.34-5.45,3-10.86,3.86-16.39a6.76,6.76,0,0,0-2.41-5.49c-5.42-3.68-8.8-8.55-7.95-15,.92-7,5-12,12.13-14.43,1.48-.5,3-2.6,3.42-4.24,1-4.31,1.41-8.78,2.08-13.18,1.54-10.16,6-17.62,16.45-21.45,5.89-2.15,10.91-6.69,16.32-10.16,6.34,6.74,13.45,12.91,18.87,20.33,12,16.35,21.05,34.23,24.77,54.43a40.88,40.88,0,0,1,.67,6.43c.25,10.94-2.81,16.1-13.42,18.47-11.25,2.5-22.84,3.43-34.75,5.11C485.1,319.53,491.38,328.52,497.66,337.51Z"/><path class="cls-8" d="M461.36,707.88l-20.9,4.83c1.49-10.11,3-20.22,4.44-30.35,1.57-11.27,3.08-22.56,4.45-33.86,1.23-10.11,2.25-20.24,4.23-30.59,2.39,5.45,4.86,10.87,7.15,16.37,9.4,22.63,20.65,44.15,37.24,62.49a4.84,4.84,0,0,1,.62,1.36Z"/><path class="cls-9" d="M657.31,588.27c-13.39-28.7-31.78-54.22-50.49-79.54-12-16.21-24-32.43-35.51-48.93-22-31.36-40.67-64.49-52.81-101-1.25-3.77-2.13-7.66-3.17-11.49,23.62,13,44.89,29.31,64.62,47.5,28.14,25.95,55.58,52.67,83.48,78.88C690.17,498.8,718,522.61,750,541c13.8,7.94,28.49,14.34,42.79,21.41,1.82.9,4.6.91,3.25,4.2l-12.51,25.56c-2.16,7.72-7.82,9-15.07,9.59C730.4,604.93,693.33,601.18,657.31,588.27Z"/><path class="cls-10" d="M638.43,606.56l7.58-1.82c4.22,17.77,8.39,35.55,12.69,53.3,5.39,22.27,10.88,44.52,16.29,66.79a34.48,34.48,0,0,1,.51,4.44c-20.19-.37-37.61,6.84-53.06,19.42,1.49-11.44,3.06-22.88,4.46-34.33,1.57-12.78,3-25.56,4.49-38.35q1.85-16,3.62-32c.83-7.54,1.63-15.1,2.34-22.66C637.81,616.46,638.08,611.51,638.43,606.56Z"/><path class="cls-11" d="M820.18,546.7l-15.47,96.75a9.87,9.87,0,0,0,6.88,11l31.25,9.44a9.86,9.86,0,0,0,12-5.65l36.83-88.58a1.05,1.05,0,0,0-.65-1.41l-69.43-22.4A1.06,1.06,0,0,0,820.18,546.7Z"/><path class="cls-11" d="M820.18,546.7l-15.47,96.75a9.87,9.87,0,0,0,6.88,11l31.25,9.44a9.86,9.86,0,0,0,12-5.65l36.83-88.58a1.05,1.05,0,0,0-.65-1.41l-69.43-22.4A1.06,1.06,0,0,0,820.18,546.7Z"/><polygon class="cls-12" points="807.8 624.11 862.16 640.56 882.31 592.1 816.14 572 807.8 624.11"/><path class="cls-6" d="M820.11,569.84s24.27-.36,29.27,7.64-12.13,1.17-24.07,7.09-20.68,9.48-22.81,3.7S800.83,568.2,820.11,569.84Z"/><rect class="cls-13" x="816.38" y="543.48" width="83" height="16" rx="5.07" transform="translate(192.58 -221.47) rotate(16.55)"/><polygon class="cls-13" points="118.84 411.86 191.76 602.06 294.46 440.31 118.84 411.86"/><circle class="cls-11" cx="585.88" cy="141.98" r="17.5"/><polygon class="cls-8" points="492.38 438.83 465.94 443.23 492.38 470.57 492.38 438.83"/><circle class="cls-14" cx="657.88" cy="796.98" r="83.5"/></svg>