<svg id="Layer_1" data-name="Layer 1" xmlns="http://www.w3.org/2000/svg" viewBox="0 0 1000 1000"><defs><style>.cls-1{fill:#d4a283;}.cls-2{fill:#999;}.cls-3{fill:#dbe1e7;}.cls-4{fill:#add3f5;}.cls-5{fill:#1c1c32;}.cls-6{fill:#1d1d4a;}.cls-7{fill:#fea9c4;}.cls-8{fill:#7a8dfe;}.cls-9{fill:#2f3030;}.cls-10{fill:#fe899c;}.cls-11{fill:#d2a182;}.cls-12{fill:#303777;}</style></defs><path class="cls-1" d="M799.38,451.48c9.34-5.42,37.73-20.63,45.86-33.31s-5.86-16.69-10.86-16.69-19.31-3.16-23.65,3.42S788.48,457.82,799.38,451.48Z"/><path class="cls-2" d="M947.38,251.48c2,1,17.32,5.2,17.53,8.23.47,6.77-112.49,158.33-121,166.55s-13.1-3.81-11.81-7.79S947.38,251.48,947.38,251.48Z"/><path class="cls-3" d="M833.58,429.49c-4.61-4.29,1.86-7.32-9.2-16C807.27,400,799.47,403,799.47,403a6.08,6.08,0,0,1-2.23-8.32l94.9-162.85a6.11,6.11,0,0,1,8.33-2.23,140.59,140.59,0,0,0,21.91,13.9c12.46,6.23,30.2,4.61,30.2,4.61a6.1,6.1,0,0,1,2.23,8.32L841.9,427.26C840.22,430.17,839.2,434.73,833.58,429.49Z"/><circle class="cls-4" cx="493.67" cy="506.22" r="309.98"/><path class="cls-3" d="M493.67,341.54c5.78.15,34.71,25.94,27.71,25.94s-22-6-24-9S491.38,341.48,493.67,341.54Z"/><path class="cls-5" d="M598.38,592.48c-9.46-15.83-6.57-25.84-17-41-18.32-26.6-23.43-56.49-42-82.89-22-31.15-24.49-68.21-36.61-104.55-1-3-1.49-6.07-2.23-9.11,10,9.22,28.08,8.29,36.89,18.55,18.31,21.34,28.34,53,46,74.88,7.23,8.92,14.86,17.52,22.2,26.35,15.93,19.17,36,23.48,59.4,17.22,21.32-5.7,40.53-15.88,59.28-27.08,10.43-6.23,20.68-12.77,30.86-19.4,2.5-1.63,4.3-1.85,6.27.39l19.78,24.67c2.28,2.79,2,5.21-.05,8.3-31.79,47.73-84,74.37-137,97C639.42,577.79,603.28,590.88,598.38,592.48Z"/><path class="cls-6" d="M627.38,687.48c-12.23-44-27-77-28-112-5,1.15-1.21,41.89-1,47,1,25-27.29,93.82-40.34,122.95-.73,1.63-20.14,36.33-20.66,38.05,6,4.4,9.43,16.56,13.23,27.48a308.15,308.15,0,0,0,114.73-46.61C652.86,743.59,635.23,715.76,627.38,687.48Z"/><path class="cls-7" d="M198.76,604.57c3.57,8.76,6.94,17.6,10.74,26.26A303.83,303.83,0,0,0,255,704.49c4.68,5.59,9.27,11.25,13.91,16.87-12.33,20.07-30.38,32.27-53.38,35.65-21.87,3.22-42.32-1.7-60-16-15.46-12.5-25.14-28.72-27.68-48.14-4.3-33,9.58-61.64,37.83-78.13C176,608.8,187.14,606,198.76,604.57Z"/><path class="cls-7" d="M392.64,390.39c-1.07-9.2-1.85-18.45-3.39-27.57a16.34,16.34,0,0,0-4.61-8.52c-14.69-14.05-25.95-30.21-31.23-50-4.86-18.17-5.08-36.08,4.69-53.07a110.2,110.2,0,0,1,27.7-32.31,17.28,17.28,0,0,0,1.93-2.15c7.64-4.32,15.07-9.06,23-12.84,6.23-3,12.95-5,19.58-7,2.28-.69,5.47-1.42,6.44,2.44-1.41,2.48-3.91,4.92-4,7.46-.36,8.09-.63,16.32.51,24.3,2.57,18.07,6.09,36,9.06,54,1.53,9.34,2.45,18.82,7.91,27l12.39,3.36c11.4,6.29,22.93,21.45,28.81,33,11,16,36.58,75,26,76-1.28-2.22-63.47-82-66.3-81.23-6.3,1.8-12.76,3-19.16,4.49-8.14-2.06-16.23-4.71-24.77-2.22a26.64,26.64,0,0,0-3.7,2c5.35.32,9.25.2,13,.86s7.5,2.12,11.24,3.23ZM385,260.68c1.32,17.19,44.56,59,57.61,57.29-10.05-8.08-21.49-15.86-31.15-25.43S394,271.61,385,260.68Zm-22.73,35.91c13,20.17,41.89,31,55.94,26.1C396.26,321.07,378.51,310.49,362.29,296.59Zm38.64-64.49c-3.05,7.65-.2,14.08,2.18,20.29,4.55,11.87,9.91,19.05,13,19.46Z"/><path class="cls-8" d="M294.54,268.52l22.26,20.6L256,349.89l-18.12-16.45a44.44,44.44,0,0,0-3.6-4.66c-12.44-12.52-24.94-25-37-37l60.1-60.11C269.33,243.52,281.94,256,294.54,268.52Z"/><path class="cls-9" d="M450.18,312.09c-5.46-8.16-6.38-17.64-7.91-27-3-18-6.49-35.94-9.06-54-1.14-8-.87-16.21-.51-24.3.11-2.54,2.61-5,4-7.46l14.58,1.35c2.17.61,4.3,1.35,6.49,1.8,3.29.68,5.19,2.42,5.15,5.92-.69,3.76-1.27,7.54-2.08,11.28C454.31,250.15,450.23,280.89,450.18,312.09Z"/><path class="cls-1" d="M799.36,451.48c-3.78,3.76-7.62,7.46-11.32,11.29-2.38,2.48-4.55,5.15-6.82,7.74l-19.78-24.67c4.94-3.88,9.69-8,14.86-11.58,6.37-4.37,10.82-10.19,14.35-16.87l12.58-16.49,1.15.28v9.61c0,10.62-.23,21.25.11,31.86C804.63,447,803.6,450,799.36,451.48Z"/><path class="cls-10" d="M427.69,351.61c-3.74-1.11-7.42-2.55-11.24-3.23s-7.65-.54-13-.86a26.64,26.64,0,0,1,3.7-2c8.54-2.49,16.63.16,24.77,2.22Z"/><path class="cls-3" d="M451.38,343.48c6.29-.61,14.95,6.15,19,11,5,6,34.75,49.23,37,49,2-.2-21-60.93-19-61.13,7.57-1.53,7.51-1.52,9.53,5.8.64,2.32,1.7,4.52,2.56,6.78.74,3,1.25,6.15,2.23,9.11,13.66,34.44,24.71,35.78,48.66,65.44,11.87,14.71,1.48,22.57,15,64,10.78,33,27.49,71.79,28,74,1.29,5.66,3.72,8.79-1.91,10.53-2.32.72-4.62,1.49-6.93,2.23l-15,3.43c-10.52,2.61,4-2.78-6.56-.17-18.47-81.87-47.49-104.44-87.64-177C467.36,390.19,460.67,359.63,451.38,343.48Z"/><path class="cls-11" d="M450.18,312.09c.05-31.2,4.13-61.94,10.68-92.4.81-3.74,1.39-7.52,2.08-11.28,7,6.72,15,12.71,20.93,20.31,13.27,17.07,23.07,36.1,27,57.66a41.79,41.79,0,0,1,.45,11.39c-.64,6.7-4.94,10.52-11.1,12.71-10.36,3.69-21.08,4.3-31.92,4.2a39,39,0,0,0-5.74.77Z"/><path class="cls-10" d="M385,260.68c9,10.93,16.81,22.29,26.46,31.86s21.1,17.35,31.15,25.43C429.58,319.69,386.34,277.87,385,260.68Z"/><path class="cls-12" d="M422.38,646.48c1.26,7.64,14.66,14.9,16,23,14.42-3.57,5.14,6.23,19,2.78,44.82-11.2,75.64,18.59,120.45,7.39,7.26-1.81,7.21-1.79,7.69-9.5,1-16.38-25.5-74.55-28.1-90.67,10.52-2.61,30.48-9.39,41-12A182.77,182.77,0,0,1,600.93,593a258.12,258.12,0,0,1-23.37,115.67c-6.17,13.6-43.44,87.22-53.34,105.66-5.4.63-10.79,1.61-16.22,1.83-50.57,2.1-98.92-7.22-144.9-28.49a11.37,11.37,0,0,1-1.6-1.1c5.65-14.16,11.12-28.4,17-42.47C384.59,729.4,416.06,661.07,422.38,646.48Z"/><path class="cls-10" d="M362.29,296.59c16.22,13.9,34,24.48,55.94,26.1C404.18,327.57,375.26,316.76,362.29,296.59Z"/><path class="cls-10" d="M400.93,232.1l15.17,39.75c-3.08-.41-8.44-7.59-13-19.46C400.73,246.18,397.88,239.75,400.93,232.1Z"/><path class="cls-6" d="M328.48,768.12c-7.29-4.83-14.91-9.24-21.8-14.6-8.88-6.91-17.18-14.58-25.73-21.93-.44-34.5,1.34-68.86,6.58-103,9.41-61.34,29-119.1,60.11-172.91,13.28-23,28.69-44.43,45-65.29,11.68-12.93,9.36-10.85,21.05-23.78l4.24-3.87c6.39-1.46,43.85,9.31,50.15,7.51,2.83-.8,4.31,0,5.59,2.22,9.29,16.14,1.81,5.15,10.83,21.45,26.88,38.56,3.88,35.56,83.88,162.56,17,23,17,62,20.1,110.67.49,7.71-2.43,11.69-9.69,13.5-44.81,11.2-73.63,19.41-118.45,30.61-44,2.22-53.66-12.15-68.08-8.57-1.34-8.11-2.6-15.75-3.87-23.39a27.07,27.07,0,0,0,0-3c-4.3-34.31,39.12-109.76,40.13-144.26,0-1.34,0-2.69,0-4C409.94,588.66,356.81,711.24,328.48,768.12Z"/><path class="cls-3" d="M437.77,346.45s-5.78.92-13.08,8.48l-7.31,7.55s17.5,2.11,25.25,4.06,5.75,5.94,13.75,14.94,11-15,14-15-14-24-19-23S437.77,346.45,437.77,346.45Z"/><path class="cls-1" d="M798.23,403.82c.23-.37,6.62-12.34,13.38-17.35s14.77-13,17.77-14,4.71,3.41-2.15,15.67-8.85,18.26-7.85,22.25-7,15-7,22.93-5,14.15-18,20.95c-11.81,6.17-9.54-22.66-8-25.8S793.09,412.22,798.23,403.82Z"/><path class="cls-3" d="M798.94,624.51l27.44,25.4-75,74.91-22.33-20.28a54.51,54.51,0,0,0-4.43-5.75c-15.34-15.43-30.75-30.79-45.58-45.61l74.08-74.08Z"/></svg>